<svg width="168" height="27" viewBox="0 0 168 27" fill="none" xmlns="http://www.w3.org/2000/svg">
<path d="M30.6458 14.1238C30.0533 14.1238 29.4609 14.1238 28.8684 14.1238C28.0389 14.1238 30.5273 14.1238 31.3568 14.1238C44.2322 14.1238 57.0666 13.4622 69.8461 11.8293C84.1086 10.007 98.1963 7.19076 112.585 6.46472C114.96 6.3449 117.334 6.28481 119.711 6.27082C120.476 6.26632 122.731 6.02896 122.005 6.27082C121.176 6.54719 119.819 6.66833 119.065 6.80405C112.15 8.04859 105.193 9.00006 98.2364 9.97109C78.8194 12.6814 59.565 15.934 40.3732 19.9408C30.7585 21.9482 20.9807 24.3837 11.1265 24.853C6.93654 25.0525 10.8936 23.9505 12.7423 23.528C27.9414 20.0539 43.6849 18.7768 59.1977 17.6625C74.1266 16.5901 89.1041 15.709 104.07 15.3518C106.746 15.288 114.777 15.2872 112.1 15.2872C102.432 15.2872 92.7641 15.2872 83.096 15.2872C62.257 15.2872 41.4181 15.2872 20.5791 15.2872C17.0297 15.2872 13.4802 15.2872 9.93074 15.2872C9.39487 15.2872 6.61139 15.6797 6.05273 15.2226C5.32521 14.6273 7.90949 14.9015 8.84813 14.8509C18.1615 14.349 27.5294 14.4566 36.8506 14.4308C66.6999 14.3484 96.6696 13.888 126.465 15.9982C130.293 16.2693 134.119 16.5787 137.938 16.9677C139.026 17.0786 142.289 17.1953 141.202 17.3232C139.676 17.5027 137.853 17.444 136.386 17.4847C124.898 17.8039 113.397 17.9318 101.904 17.8079C80.1292 17.5731 58.5675 16.0745 37.1415 12.1202C34.7816 11.6846 32.3534 11.2991 30.0318 10.6659C27.8182 10.0622 30.5569 9.68434 31.3406 9.53482C52.288 5.53829 74.0005 3.97532 95.2471 2.81292C116.963 1.62488 138.921 1.02128 160.672 1.77879C162.657 1.8479 164.729 1.87987 166.7 2.1989C168.202 2.44215 163.665 2.48678 162.143 2.48976C142.123 2.52886 122.101 2.37764 102.082 2.65134C92.4374 2.7832 82.5973 2.64288 73.0454 4.23486C72.8529 4.26695 72.3335 4.4993 72.5284 4.50956C76.321 4.70917 80.1096 4.76766 83.9039 5.02662C94.7928 5.76979 105.667 6.80055 116.447 8.533C117.749 8.74223 119.19 8.88721 120.454 9.3086C122.186 9.88584 116.887 10.1185 115.073 10.3266C77.6778 14.6179 39.9867 17.9049 2.32014 17.9049C-4.19328 17.9049 15.1759 15.7242 21.6617 15.1256C47.9029 12.7037 74.261 12.5697 100.579 11.797C103.628 11.7075 106.675 11.5768 109.725 11.5223C110.774 11.5036 111.039 11.5061 111.923 11.5061C112.154 11.5061 111.459 11.5061 111.228 11.5061C102.772 11.5061 94.2943 11.3258 85.8429 11.6354C82.9456 11.7416 80.0532 11.961 77.1658 12.2171C76.8462 12.2455 72.4423 12.3673 75.5015 12.8958C90.0659 15.4114 104.507 18.4677 119 21.3628C123.996 22.3607 129.003 23.2899 134.011 24.2228C136.248 24.6394 136.664 24.7189 138.649 25.1115C139.119 25.2046 140.516 25.2868 140.054 25.4185C138.942 25.7364 134.909 25.0938 134.221 25.0469C125.34 24.4417 116.472 23.6662 107.592 23.0432C99.2788 22.46 90.9885 22.2676 82.6597 22.2676C78.6197 22.2676 90.731 22.6495 94.7623 22.914C103.881 23.5122 112.978 24.0127 122.119 24.0127C122.718 24.0127 124.394 24.2403 123.912 23.8835C122.197 22.6129 118.102 22.4606 116.221 22.1384C104.927 20.2036 93.4851 19.1762 82.0618 18.3735C80.123 18.2372 78.1838 18.1037 76.2448 17.9695C76.213 17.9673 74.2892 17.9049 75.5985 17.9049C82.1372 17.9049 88.676 17.9049 95.2148 17.9049C98.2417 17.9049 101.269 17.9166 104.296 17.9049C104.924 17.9024 107.99 18.2678 108.562 17.614C109.373 16.6873 106.109 17.3514 104.877 17.3393C96.5308 17.2575 88.1787 17.3036 79.832 17.3393C72.058 17.3726 64.284 17.4126 56.5316 18.0503C53.8333 18.2722 51.142 18.6354 48.4362 18.7613C43.2109 19.0043 58.8951 19.0683 64.126 19.0683C64.7163 19.0683 69.8075 19.0683 66.5821 19.0683C61.266 19.0683 55.9499 19.0683 50.6338 19.0683C49.6265 19.0683 48.6193 19.0683 47.6121 19.0683C46.7934 19.0683 49.2496 19.078 50.0682 19.0683C61.4375 18.9335 72.6308 17.1568 83.7746 15.0125C91.036 13.6153 98.3157 12.191 105.524 10.5366C108.852 9.77288 102.199 10.2113 101.791 10.2458C98.4252 10.5306 93.9042 10.7947 90.8197 12.3787C90.5036 12.541 91.4985 12.6372 91.8538 12.6372C97.1236 12.6372 102.454 12.1726 107.689 11.6516C123.084 10.1194 138.179 6.79808 153.482 4.65498C155.491 4.37358 157.515 4.10299 159.541 3.97633C159.977 3.94913 161.266 3.77125 160.058 4.15407C157.772 4.87891 155.486 5.82623 153.288 6.78789C151.63 7.51308 154.297 8.22601 155.001 8.64611C155.313 8.83218 158.99 11.1828 158.588 11.5708C157.298 12.8143 154.139 12.3787 152.512 12.3787" stroke="#F79523" stroke-linecap="round"/>
</svg>
