<svg width="143" height="19" viewBox="0 0 143 19" fill="none" xmlns="http://www.w3.org/2000/svg">
<path d="M116.819 9.04161C117.322 9.04161 117.825 9.04161 118.329 9.04161C119.033 9.04161 116.92 9.04161 116.215 9.04161C105.279 9.04161 94.3772 9.50905 83.5224 10.6626C71.4079 11.9501 59.4419 13.9397 47.2201 14.4526C45.2031 14.5372 43.1866 14.5797 41.1674 14.5896C40.5178 14.5928 38.6022 14.7605 39.2185 14.5896C39.9227 14.3943 41.076 14.3088 41.7164 14.2129C47.5892 13.3336 53.4988 12.6614 59.4078 11.9754C75.9005 10.0607 92.2551 7.76276 108.557 4.93201C116.723 3.51386 125.028 1.79319 133.399 1.46167C136.958 1.32071 133.596 2.09922 132.026 2.39775C119.116 4.85212 105.744 5.75434 92.5671 6.5416C79.8865 7.29923 67.1647 7.9217 54.4531 8.17403C52.1799 8.21915 45.358 8.21969 47.6318 8.21969C55.8439 8.21969 64.0559 8.21969 72.268 8.21969C89.9685 8.21969 107.669 8.21969 125.37 8.21969C128.384 8.21969 131.399 8.21969 134.414 8.21969C134.869 8.21969 137.234 7.94243 137.708 8.26535C138.326 8.68588 136.131 8.49218 135.334 8.52791C127.423 8.88251 119.466 8.80653 111.549 8.82472C86.1947 8.88297 60.7386 9.20819 35.4304 7.71741C32.1787 7.52587 28.9289 7.30731 25.6857 7.03247C24.7609 6.9541 21.9901 6.87167 22.9133 6.78133C24.2094 6.65451 25.7573 6.69596 27.0033 6.66717C36.7617 6.44172 46.5306 6.35132 56.2922 6.43886C74.7879 6.60472 93.1024 7.6635 111.302 10.4571C113.306 10.7648 115.369 11.0372 117.341 11.4845C119.221 11.9111 116.894 12.178 116.229 12.2836C98.4362 15.1071 79.9937 16.2113 61.9469 17.0325C43.5018 17.8718 24.8503 18.2983 6.37484 17.7631C4.68917 17.7143 2.92919 17.6917 1.25546 17.4663C-0.0206875 17.2945 3.83312 17.2629 5.12588 17.2608C22.1309 17.2332 39.1372 17.34 56.1413 17.1467C64.3334 17.0535 72.6915 17.1526 80.8049 16.0279C80.9684 16.0053 81.4096 15.8411 81.2441 15.8339C78.0226 15.6929 74.8046 15.6515 71.5818 15.4686C62.3327 14.9436 53.096 14.2153 43.9398 12.9914C42.834 12.8436 41.6099 12.7412 40.5361 12.4435C39.0652 12.0356 43.5661 11.8713 45.1065 11.7243C76.8702 8.69256 108.885 6.37037 140.879 6.37037C146.411 6.37037 129.959 7.91095 124.45 8.33385C102.161 10.0449 79.7724 10.1395 57.4177 10.6855C54.8282 10.7487 52.2397 10.841 49.6494 10.8795C48.7583 10.8928 48.5337 10.8909 47.7828 10.8909C47.5861 10.8909 48.1763 10.8909 48.373 10.8909C55.5555 10.8909 62.7561 11.0184 69.9348 10.7996C72.3957 10.7246 74.8525 10.5696 77.305 10.3887C77.5765 10.3686 81.3172 10.2825 78.7187 9.9092C66.3477 8.13193 54.0814 5.97277 41.7713 3.92744C37.5279 3.22239 33.2747 2.56594 29.0209 1.90688C27.1211 1.61254 26.7678 1.55639 25.0819 1.27902C24.6822 1.21327 23.4961 1.15522 23.8878 1.06213C24.8328 0.837545 28.2582 1.29157 28.8425 1.32468C36.3862 1.75222 43.9187 2.30011 51.4611 2.74022C58.5224 3.15225 65.5641 3.28816 72.6386 3.28816C76.0701 3.28816 65.7828 3.01837 62.3586 2.83154C54.6131 2.40893 46.886 2.05528 39.1224 2.05528C38.6133 2.05528 37.1898 1.89454 37.5989 2.14661C39.0558 3.04421 42.5344 3.15184 44.132 3.37949C53.7247 4.74635 63.4435 5.47222 73.1464 6.03932C74.7932 6.13557 76.4404 6.22987 78.0873 6.32471C78.1144 6.32626 79.7484 6.37037 78.6363 6.37037C73.0823 6.37037 67.5283 6.37037 61.9743 6.37037C59.4033 6.37037 56.832 6.36205 54.261 6.37037C53.7276 6.3721 51.1235 6.11395 50.6376 6.57585C49.9488 7.23058 52.7209 6.76139 53.7669 6.76991C60.8565 6.82773 67.9507 6.79517 75.0404 6.76991C81.6436 6.74639 88.2468 6.71811 94.8317 6.26763C97.1236 6.11084 99.4096 5.85425 101.708 5.76534C106.146 5.59364 92.8241 5.54845 88.381 5.54845C87.8796 5.54845 83.5551 5.54845 86.2948 5.54845C90.8103 5.54845 95.3258 5.54845 99.8413 5.54845C100.697 5.54845 101.552 5.54845 102.408 5.54845C103.103 5.54845 101.017 5.54159 100.322 5.54845C90.6646 5.64369 81.157 6.89886 71.6915 8.41376C65.5238 9.40087 59.3405 10.4071 53.2179 11.5759C50.3912 12.1155 56.0423 11.8057 56.3883 11.7814C59.2474 11.5801 63.0875 11.3935 65.7075 10.2745C65.976 10.1598 65.1309 10.0918 64.8291 10.0918C60.353 10.0918 55.8252 10.4201 51.3787 10.7882C38.3027 11.8706 25.4803 14.2171 12.4824 15.7311C10.7757 15.9299 9.05695 16.1211 7.33558 16.2106C6.96597 16.2298 5.87086 16.3555 6.89638 16.085C8.83814 15.5729 10.7801 14.9037 12.6471 14.2243C14.055 13.712 11.7905 13.2083 11.1923 12.9115C10.9273 12.78 7.80358 11.1194 8.14535 10.8453C9.24075 9.96672 11.924 10.2745 13.3059 10.2745" stroke="#F79523" stroke-linecap="round"/>
</svg>
