<svg width="104" height="19" viewBox="0 0 104 19" fill="none" xmlns="http://www.w3.org/2000/svg">
<path d="M84.7839 9.04161C85.148 9.04161 85.512 9.04161 85.8761 9.04161C86.3857 9.04161 84.8567 9.04161 84.3471 9.04161C76.4357 9.04161 68.5495 9.50905 60.6971 10.6626C51.9334 11.9501 43.2771 13.9397 34.4358 14.4526C32.9767 14.5372 31.518 14.5797 30.0573 14.5896C29.5873 14.5928 28.2016 14.7605 28.6474 14.5896C29.1569 14.3943 29.9911 14.3088 30.4544 14.2129C34.7028 13.3336 38.9779 12.6614 43.2524 11.9754C55.1833 10.0607 67.0143 7.76276 78.8069 4.93201C84.7147 3.51386 90.7227 1.79319 96.7777 1.46167C99.3523 1.32071 96.9208 2.09922 95.7849 2.39775C86.4457 4.85212 76.772 5.75434 67.24 6.5416C58.0669 7.29923 48.8638 7.9217 39.6682 8.17403C38.0238 8.21915 33.0888 8.21969 34.7337 8.21969C40.6743 8.21969 46.6149 8.21969 52.5556 8.21969C65.3602 8.21969 78.1648 8.21969 90.9695 8.21969C93.1505 8.21969 95.3315 8.21969 97.5124 8.21969C97.8417 8.21969 99.552 7.94243 99.8953 8.26535C100.342 8.68588 98.7544 8.49218 98.1777 8.52791C92.455 8.88251 86.6988 8.80653 80.9713 8.82472C62.6302 8.88297 44.2152 9.20819 25.9071 7.71741C23.5548 7.52587 21.2039 7.30731 18.8578 7.03247C18.1888 6.9541 16.1843 6.87167 16.8522 6.78133C17.7897 6.65451 18.9095 6.69596 19.8109 6.66717C26.8701 6.44172 33.9371 6.35132 40.9986 6.43886C54.3785 6.60472 67.6273 7.6635 80.7926 10.4571C82.2427 10.7648 83.7347 11.0372 85.1612 11.4845C86.5214 11.9111 84.8386 12.178 84.357 12.2836C71.4858 15.1071 58.1444 16.2113 45.0892 17.0325C31.746 17.8718 18.2534 18.2983 4.88818 17.7631C3.66876 17.7143 2.39558 17.6917 1.1848 17.4663C0.261625 17.2945 3.04948 17.2629 3.98467 17.2608C16.2861 17.2332 28.5886 17.34 40.8894 17.1467C46.8157 17.0535 52.862 17.1526 58.7312 16.0279C58.8495 16.0053 59.1687 15.8411 59.0489 15.8339C56.7185 15.6929 54.3906 15.6515 52.0591 15.4686C45.3684 14.9436 38.6865 14.2153 32.0629 12.9914C31.2629 12.8436 30.3773 12.7412 29.6006 12.4435C28.5365 12.0356 31.7925 11.8713 32.9068 11.7243C55.8848 8.69256 79.0444 6.37037 102.189 6.37037C106.191 6.37037 94.2895 7.91095 90.3043 8.33385C74.1802 10.0449 57.9843 10.1395 41.8128 10.6855C39.9395 10.7487 38.067 10.841 36.1932 10.8795C35.5485 10.8928 35.3861 10.8909 34.8429 10.8909C34.7006 10.8909 35.1275 10.8909 35.2698 10.8909C40.4657 10.8909 45.6747 11.0184 50.8677 10.7996C52.648 10.7246 54.4252 10.5696 56.1994 10.3887C56.3958 10.3686 59.1018 10.2825 57.222 9.9092C48.2728 8.13193 39.3993 5.97277 30.4941 3.92744C27.4244 3.22239 24.3477 2.56594 21.2704 1.90688C19.8961 1.61254 19.6405 1.55639 18.4209 1.27902C18.1318 1.21327 17.2737 1.15522 17.5571 1.06213C18.2408 0.837545 20.7187 1.29157 21.1414 1.32468C26.5985 1.75222 32.0475 2.30011 37.5038 2.74022C42.6119 3.15225 47.706 3.28816 52.8236 3.28816C55.306 3.28816 47.8641 3.01837 45.3871 2.83154C39.7839 2.40893 34.1941 2.05528 28.5779 2.05528C28.2096 2.05528 27.1799 1.89454 27.4758 2.14661C28.5298 3.04421 31.0461 3.15184 32.2019 3.37949C39.1413 4.74635 46.1719 5.47222 53.191 6.03932C54.3823 6.13557 55.5739 6.22987 56.7653 6.32471C56.7849 6.32626 57.967 6.37037 57.1625 6.37037C53.1447 6.37037 49.1269 6.37037 45.1091 6.37037C43.2492 6.37037 41.3891 6.36205 39.5292 6.37037C39.1434 6.3721 37.2596 6.11395 36.908 6.57585C36.4098 7.23058 38.4151 6.76139 39.1718 6.76991C44.3004 6.82773 49.4324 6.79517 54.5612 6.76991C59.3379 6.74639 64.1147 6.71811 68.8782 6.26763C70.5362 6.11084 72.1899 5.85425 73.8525 5.76534C77.0632 5.59364 67.426 5.54845 64.2118 5.54845C63.8491 5.54845 60.7207 5.54845 62.7026 5.54845C65.9692 5.54845 69.2357 5.54845 72.5022 5.54845C73.1211 5.54845 73.74 5.54845 74.3589 5.54845C74.8619 5.54845 73.3527 5.54159 72.8497 5.54845C65.8637 5.64369 58.9859 6.89886 52.1386 8.41376C47.6768 9.40087 43.2037 10.4071 38.7746 11.5759C36.7298 12.1155 40.8178 11.8057 41.0681 11.7814C43.1364 11.5801 45.9144 11.3935 47.8097 10.2745C48.0039 10.1598 47.3926 10.0918 47.1742 10.0918C43.9362 10.0918 40.6608 10.4201 37.4442 10.7882C27.985 11.8706 18.7091 14.2171 9.30642 15.7311C8.0718 15.9299 6.82842 16.1211 5.58318 16.2106C5.3158 16.2298 4.5236 16.3555 5.26546 16.085C6.67014 15.5729 8.07493 14.9037 9.42556 14.2243C10.4441 13.712 8.80588 13.2083 8.37313 12.9115C8.18145 12.78 5.92173 11.1194 6.16897 10.8453C6.96139 9.96672 8.90243 10.2745 9.90214 10.2745" stroke="#F79523" stroke-linecap="round"/>
</svg>
