<svg width="115" height="10" viewBox="0 0 115 10" fill="none" xmlns="http://www.w3.org/2000/svg">
<path d="M0.779785 0.99701C20.6806 0.99701 40.5815 0.99701 60.4824 0.99701C66.403 0.99701 48.6411 0.981284 42.7206 0.99701C33.3007 1.02203 23.8913 1.51268 14.4736 1.51268C-4.34344 1.51268 52.1076 1.51268 70.9246 1.51268C71.8938 1.51268 72.8631 1.51268 73.8324 1.51268C75.1024 1.51268 71.2922 1.51268 70.0222 1.51268C54.6177 1.51268 39.2166 1.54856 23.8128 1.71321C17.2806 1.78303 -2.31505 2.02834 4.21755 2.02834C17.7967 2.02834 31.3759 2.02834 44.9551 2.02834C59.7662 2.02834 74.5772 2.02834 89.3883 2.02834C90.2095 2.02834 91.0308 2.02834 91.852 2.02834C92.1194 2.02834 91.3172 2.02834 91.0499 2.02834C86.638 2.02834 82.2262 2.02834 77.8144 2.02834C60.9646 2.02834 44.1148 2.02834 27.2649 2.02834C25.1688 2.02834 23.0728 2.02834 20.9767 2.02834C20.7857 2.02834 20.2127 2.02834 20.4037 2.02834C20.6377 2.02834 20.8716 2.02834 21.1056 2.02834C25.5174 2.02834 29.9292 2.02834 34.341 2.02834C53.0339 2.02834 71.7267 2.02834 90.4196 2.02834C92.7974 2.02834 99.9308 2.02834 97.553 2.02834C94.2059 2.02834 90.8589 2.02834 87.5118 2.02834C73.756 2.02834 60.0001 2.02834 46.2443 2.02834C42.9497 2.02834 39.6552 2.02834 36.3607 2.02834C34.6036 2.02834 39.8748 2.02834 41.6319 2.02834C59.7803 2.02834 77.9293 1.97854 96.0776 2.04266C100.608 2.05867 104.785 2.077 109.284 2.17158C110.962 2.20684 112.749 1.79271 114.312 2.40077C115.261 2.7697 112.279 2.51955 111.261 2.52968C109.115 2.55104 104.705 2.54401 102.867 2.54401C78.8068 2.54401 54.7482 2.56876 30.6884 2.74454C24.7677 2.7878 18.8474 2.80184 12.9266 2.80184C10.8353 2.80184 17.1092 2.80184 19.2005 2.80184C33.1569 2.80184 75.026 2.80184 61.0696 2.80184C53.7262 2.80184 46.3886 3.98263 39.1109 4.8072C33.5372 5.43871 27.9008 5.83471 22.3518 6.66933C21.9851 6.72448 21.5799 6.7057 21.2632 6.89851C21.1314 6.97873 21.5391 7.05793 21.6929 7.0704C23.0753 7.18249 28.1208 7.18284 28.8835 7.18499C43.8662 7.22726 58.8496 7.18499 73.8324 7.18499C74.6154 7.18499 78.5894 7.17662 79.9058 7.19932C80.3244 7.20653 81.4812 7.0982 81.1519 7.35688C79.6306 8.55225 75.0825 8.32152 73.417 8.43118C67.0927 8.8476 60.7431 8.73199 54.409 8.73199C50.2837 8.73199 62.6596 8.73199 66.7849 8.73199C70.5283 8.73199 81.7583 8.73199 78.015 8.73199C75.4749 8.73199 72.9347 8.73199 70.3946 8.73199" stroke="#F79523" stroke-linecap="round"/>
</svg>
