<svg width="103" height="13" viewBox="0 0 103 13" fill="none" xmlns="http://www.w3.org/2000/svg">
<path d="M1 11.9901C18.6755 11.9901 36.351 11.9901 54.0264 11.9901C59.285 11.9901 43.5093 12.0124 38.2508 11.9901C29.8843 11.9546 21.5271 11.2588 13.1625 11.2588C-3.55033 11.2588 46.5881 11.2588 63.301 11.2588C64.1618 11.2588 65.0227 11.2588 65.8836 11.2588C67.0116 11.2588 63.6275 11.2588 62.4995 11.2588C48.8176 11.2588 35.1386 11.2079 21.4574 10.9744C15.6556 10.8754 -1.74876 10.5275 4.05335 10.5275C16.1141 10.5275 28.1748 10.5275 40.2355 10.5275C53.3903 10.5275 66.5451 10.5275 79.7 10.5275C80.4294 10.5275 81.1588 10.5275 81.8882 10.5275C82.1257 10.5275 81.4132 10.5275 81.1758 10.5275C77.2573 10.5275 73.3388 10.5275 69.4204 10.5275C54.4547 10.5275 39.4891 10.5275 24.5235 10.5275C22.6618 10.5275 20.8001 10.5275 18.9384 10.5275C18.7688 10.5275 18.2599 10.5275 18.4295 10.5275C18.6373 10.5275 18.8451 10.5275 19.0529 10.5275C22.9714 10.5275 26.8898 10.5275 30.8083 10.5275C47.4108 10.5275 64.0134 10.5275 80.616 10.5275C82.7279 10.5275 89.0636 10.5275 86.9517 10.5275C83.9789 10.5275 81.0061 10.5275 78.0334 10.5275C65.8157 10.5275 53.5981 10.5275 41.3805 10.5275C38.4544 10.5275 35.5282 10.5275 32.6021 10.5275C31.0415 10.5275 35.7233 10.5275 37.2839 10.5275C53.4029 10.5275 69.5224 10.5982 85.6413 10.5072C89.6651 10.4845 93.375 10.4585 97.3712 10.3244C98.8609 10.2744 100.448 10.8617 101.837 9.99938C102.679 9.47618 100.031 9.83093 99.1269 9.81656C97.2207 9.78628 93.3043 9.79625 91.6716 9.79625C70.3017 9.79625 48.9335 9.76114 27.5641 9.51186C22.3055 9.45052 17.0472 9.43061 11.7885 9.43061C9.93103 9.43061 15.5034 9.43061 17.3608 9.43061C29.7566 9.43061 66.9438 9.43061 54.548 9.43061C48.0258 9.43061 41.5087 7.7561 35.0448 6.58675C30.0943 5.69119 25.0883 5.1296 20.1597 3.94602C19.834 3.8678 19.4742 3.89443 19.1928 3.621C19.0758 3.50725 19.4379 3.39492 19.5745 3.37724C20.8024 3.21828 25.2837 3.21779 25.9611 3.21474C39.2684 3.1548 52.5763 3.21474 65.8836 3.21474C66.5791 3.21474 70.1087 3.22661 71.2778 3.19442C71.6497 3.18419 72.6771 3.33782 72.3847 2.97098C71.0334 1.27579 66.994 1.603 65.5146 1.44748C59.8975 0.856947 54.258 1.0209 48.6322 1.0209C44.9682 1.0209 55.9602 1.0209 59.6242 1.0209C62.949 1.0209 72.9232 1.0209 69.5985 1.0209C67.3424 1.0209 65.0863 1.0209 62.8302 1.0209" stroke="#F79523" stroke-linecap="round"/>
</svg>
