<svg width="190" height="23" viewBox="0 0 190 23" fill="none" xmlns="http://www.w3.org/2000/svg">
<path d="M15.6 6.384L16.848 18H12.704L12.448 9.712L10.848 18H6.656L5.024 9.776L4.784 18H0.64L1.888 6.384H7.328L8.72 13.952L9.936 6.384H15.6ZM21.9004 15.072C25.9537 15.0507 28.8924 14.992 30.7164 14.896C30.6417 15.3333 30.5937 15.7867 30.5724 16.256C30.5617 16.7147 30.5564 17.296 30.5564 18H18.1244C18.2097 15.9307 18.2524 13.9947 18.2524 12.192C18.2524 10.3893 18.2097 8.45333 18.1244 6.384H30.5564V9.28H21.9004V10.816C22.4124 10.8267 23.1697 10.832 24.1724 10.832C25.8684 10.832 27.623 10.8 29.4364 10.736V13.488C27.623 13.424 25.8684 13.392 24.1724 13.392C23.1697 13.392 22.4124 13.3973 21.9004 13.408V15.072ZM46.6469 6.384L47.8949 18H43.7509L43.4949 9.712L41.8949 18H37.7029L36.0709 9.776L35.8309 18H31.6869L32.9349 6.384H38.3749L39.7669 13.952L40.9829 6.384H46.6469ZM52.9473 15.072C57.0006 15.0507 59.9393 14.992 61.7633 14.896C61.6886 15.3333 61.6406 15.7867 61.6193 16.256C61.6086 16.7147 61.6033 17.296 61.6033 18H49.1713C49.2566 15.9307 49.2993 13.9947 49.2993 12.192C49.2993 10.3893 49.2566 8.45333 49.1713 6.384H61.6033V9.28H52.9473V10.816C53.4593 10.8267 54.2166 10.832 55.2193 10.832C56.9153 10.832 58.6699 10.8 60.4833 10.736V13.488C58.6699 13.424 56.9153 13.392 55.2193 13.392C54.2166 13.392 53.4593 13.3973 52.9473 13.408V15.072ZM105.504 10.256C105.504 11.184 105.274 11.968 104.816 12.608C104.368 13.248 103.594 13.712 102.496 14C102.624 14.1707 102.714 14.304 102.768 14.4L105.36 18H101.008C100.538 17.1253 99.797 15.888 98.7836 14.288H96.4316V18H92.6556C92.741 15.9307 92.7836 13.9947 92.7836 12.192C92.7836 10.3893 92.741 8.45333 92.6556 6.384H96.4316V6.4H99.7116C101.866 6.4 103.37 6.74667 104.224 7.44C105.077 8.13333 105.504 9.072 105.504 10.256ZM96.4316 9.472V11.296H98.5916C99.4983 11.296 100.181 11.2693 100.64 11.216C101.109 11.152 101.434 11.056 101.616 10.928C101.797 10.8 101.888 10.6133 101.888 10.368C101.888 10.1333 101.802 9.952 101.632 9.824C101.461 9.696 101.141 9.60533 100.672 9.552C100.202 9.49867 99.509 9.472 98.5916 9.472H96.4316ZM110.557 15.072C114.61 15.0507 117.549 14.992 119.373 14.896C119.298 15.3333 119.25 15.7867 119.229 16.256C119.218 16.7147 119.213 17.296 119.213 18H106.781C106.866 15.9307 106.909 13.9947 106.909 12.192C106.909 10.3893 106.866 8.45333 106.781 6.384H119.213V9.28H110.557V10.816C111.069 10.8267 111.826 10.832 112.829 10.832C114.525 10.832 116.279 10.8 118.093 10.736V13.488C116.279 13.424 114.525 13.392 112.829 13.392C111.826 13.392 111.069 13.3973 110.557 13.408V15.072ZM120.656 16.624C121.018 16.08 121.317 15.5733 121.552 15.104C121.797 14.6347 122.032 14.0907 122.256 13.472C123.013 13.9093 123.893 14.2507 124.896 14.496C125.898 14.7413 126.832 14.864 127.696 14.864C128.581 14.864 129.205 14.7893 129.568 14.64C129.93 14.48 130.112 14.3093 130.112 14.128C130.112 13.4773 129.12 13.152 127.136 13.152C124.96 13.152 123.381 12.928 122.4 12.48C121.418 12.0213 120.928 11.2853 120.928 10.272C120.928 8.832 121.525 7.77067 122.72 7.088C123.914 6.40533 125.466 6.064 127.376 6.064C128.485 6.064 129.621 6.208 130.784 6.496C131.957 6.77333 133.013 7.15733 133.952 7.648C133.642 8.352 133.317 9.21067 132.976 10.224C132.912 10.4373 132.858 10.5973 132.816 10.704C132.272 10.2667 131.45 9.904 130.352 9.616C129.253 9.31733 128.282 9.168 127.44 9.168C126.426 9.168 125.744 9.23733 125.392 9.376C125.04 9.504 124.864 9.696 124.864 9.952C124.864 10.208 125.104 10.416 125.584 10.576C126.074 10.7253 126.778 10.8 127.696 10.8C129.957 10.8 131.6 11.0613 132.624 11.584C133.648 12.096 134.16 12.8853 134.16 13.952C134.16 15.4453 133.616 16.5227 132.528 17.184C131.44 17.8347 129.792 18.16 127.584 18.16C126.4 18.16 125.194 18.032 123.968 17.776C122.741 17.5093 121.637 17.1253 120.656 16.624ZM148.54 9.744C146.866 9.69067 145.239 9.65867 143.66 9.648V18H139.66V9.648C138.071 9.65867 136.45 9.69067 134.796 9.744V6.384H148.54V9.744Z" fill="#1F3FEF"/>
<path d="M76.7903 9.744C75.1156 9.69067 73.4889 9.65867 71.9103 9.648V18H67.9103V9.648C66.3209 9.65867 64.6996 9.69067 63.0463 9.744V6.384H76.7903V9.744ZM84.2444 18.16C81.8017 18.16 80.0044 17.632 78.8524 16.576C77.7004 15.5093 77.1244 14.016 77.1244 12.096C77.1244 10.1973 77.695 8.71467 78.8364 7.648C79.9884 6.58133 81.791 6.048 84.2444 6.048C86.7084 6.048 88.511 6.58133 89.6524 7.648C90.8044 8.71467 91.3804 10.1973 91.3804 12.096C91.3804 14.0267 90.8097 15.52 89.6684 16.576C88.527 17.632 86.719 18.16 84.2444 18.16ZM84.2444 14.896C85.4284 14.896 86.2817 14.672 86.8044 14.224C87.327 13.7653 87.5884 13.056 87.5884 12.096C87.5884 11.1573 87.327 10.4587 86.8044 10C86.2817 9.54133 85.4284 9.312 84.2444 9.312C83.071 9.312 82.223 9.54133 81.7004 10C81.1777 10.4587 80.9164 11.1573 80.9164 12.096C80.9164 13.0453 81.1777 13.7493 81.7004 14.208C82.223 14.6667 83.071 14.896 84.2444 14.896Z" fill="#0A1B79"/>
<path d="M157.491 16.174C157.491 16.4233 157.52 16.5993 157.579 16.702C157.638 16.8047 157.755 16.878 157.931 16.922L157.887 17.956C157.652 17.9927 157.447 18.0183 157.271 18.033C157.102 18.0477 156.875 18.055 156.589 18.055C155.958 18.055 155.54 17.9157 155.335 17.637C155.13 17.351 155.027 16.988 155.027 16.548V16.273C154.814 16.8743 154.503 17.3217 154.092 17.615C153.689 17.9083 153.172 18.055 152.541 18.055C151.808 18.055 151.254 17.9083 150.88 17.615C150.513 17.3217 150.33 16.8853 150.33 16.306C150.33 15.8293 150.488 15.4553 150.803 15.184C151.118 14.9127 151.606 14.7257 152.266 14.623C151.709 14.227 151.151 13.8823 150.594 13.589C151.034 13.0317 151.536 12.61 152.101 12.324C152.666 12.0307 153.351 11.884 154.158 11.884C155.287 11.884 156.123 12.1297 156.666 12.621C157.216 13.105 157.491 13.853 157.491 14.865V16.174ZM154.389 13.82C154.015 13.82 153.685 13.8823 153.399 14.007C153.113 14.1317 152.856 14.3187 152.629 14.568C153.069 14.5167 153.619 14.491 154.279 14.491C154.55 14.491 154.741 14.458 154.851 14.392C154.961 14.326 155.016 14.2417 155.016 14.139C155.016 14.051 154.961 13.9777 154.851 13.919C154.741 13.853 154.587 13.82 154.389 13.82ZM153.234 16.262C153.645 16.262 154.015 16.185 154.345 16.031C154.675 15.8697 154.902 15.6607 155.027 15.404V15.118C154.851 15.206 154.657 15.2757 154.444 15.327C154.231 15.371 153.975 15.415 153.674 15.459L153.278 15.525C152.867 15.6057 152.662 15.745 152.662 15.943C152.662 16.1557 152.853 16.262 153.234 16.262ZM165.787 9.442C165.743 10.806 165.721 12.2323 165.721 13.721C165.721 15.195 165.743 16.6213 165.787 18H163.301L163.334 16.68C163.122 17.1713 162.814 17.5343 162.41 17.769C162.007 17.9963 161.53 18.11 160.98 18.11C160.504 18.11 160.075 17.9743 159.693 17.703C159.312 17.4317 159.015 17.065 158.802 16.603C158.59 16.1337 158.483 15.6203 158.483 15.063C158.483 14.513 158.59 13.996 158.802 13.512C159.015 13.0207 159.312 12.6283 159.693 12.335C160.082 12.0343 160.522 11.884 161.013 11.884C161.585 11.884 162.073 12.005 162.476 12.247C162.887 12.4817 163.191 12.8483 163.389 13.347C163.389 12.929 163.375 12.258 163.345 11.334C163.316 10.4393 163.301 9.80867 163.301 9.442H165.787ZM162.135 16.262C162.495 16.262 162.788 16.163 163.015 15.965C163.243 15.7597 163.356 15.437 163.356 14.997C163.356 14.6083 163.243 14.3223 163.015 14.139C162.788 13.9557 162.502 13.864 162.157 13.864C161.827 13.864 161.549 13.9703 161.321 14.183C161.101 14.3883 160.991 14.6597 160.991 14.997C160.991 15.371 161.094 15.6753 161.299 15.91C161.505 16.1447 161.783 16.262 162.135 16.262ZM175.196 18C175.255 17.0393 175.284 16.0457 175.284 15.019C175.284 14.689 175.2 14.4323 175.031 14.249C174.87 14.0583 174.654 13.963 174.382 13.963C174.133 13.963 173.917 14.073 173.733 14.293C173.557 14.513 173.469 14.832 173.469 15.25V15.239C173.469 16.537 173.488 17.4573 173.524 18H171.049C171.093 16.922 171.115 15.9283 171.115 15.019C171.115 14.6963 171.035 14.4397 170.873 14.249C170.719 14.0583 170.521 13.963 170.279 13.963C170.023 13.963 169.806 14.073 169.63 14.293C169.462 14.5057 169.363 14.799 169.333 15.173C169.319 15.7303 169.311 16.1263 169.311 16.361C169.311 16.8597 169.326 17.406 169.355 18H166.726C166.785 16.944 166.814 15.9467 166.814 15.008C166.814 14.0693 166.785 13.0647 166.726 11.994C167.21 12.016 167.581 12.027 167.837 12.027C168.109 12.027 168.479 12.016 168.948 11.994L169.278 13.622C169.447 13.028 169.715 12.5917 170.081 12.313C170.448 12.027 170.87 11.884 171.346 11.884C171.918 11.884 172.384 12.0417 172.743 12.357C173.11 12.6723 173.337 13.083 173.425 13.589C173.594 13.0683 173.876 12.654 174.272 12.346C174.668 12.038 175.119 11.884 175.625 11.884C176.285 11.884 176.802 12.1077 177.176 12.555C177.55 12.995 177.737 13.6 177.737 14.37V16.196C177.737 17.0247 177.745 17.626 177.759 18H175.196ZM180.22 11.345C179.758 11.345 179.413 11.2313 179.186 11.004C178.966 10.7767 178.856 10.4797 178.856 10.113C178.856 9.75367 178.966 9.45667 179.186 9.222C179.413 8.98733 179.758 8.87 180.22 8.87C180.66 8.87 180.997 8.991 181.232 9.233C181.466 9.46767 181.584 9.761 181.584 10.113C181.584 10.4797 181.47 10.7767 181.243 11.004C181.015 11.2313 180.674 11.345 180.22 11.345ZM178.944 18C178.995 16.8193 179.021 15.844 179.021 15.074C179.021 14.1573 178.991 13.1307 178.933 11.994H181.573C181.514 13.0867 181.485 14.1133 181.485 15.074C181.485 15.8807 181.51 16.856 181.562 18H178.944ZM186.86 18C186.904 16.922 186.926 15.9283 186.926 15.019C186.926 14.6963 186.845 14.4397 186.684 14.249C186.53 14.0583 186.332 13.963 186.09 13.963C185.848 13.963 185.643 14.073 185.474 14.293C185.305 14.5057 185.206 14.799 185.177 15.173C185.162 15.7303 185.155 16.1263 185.155 16.361C185.155 16.8597 185.17 17.406 185.199 18H182.57C182.629 16.944 182.658 15.9467 182.658 15.008C182.658 14.0693 182.629 13.0647 182.57 11.994C183.054 12.016 183.424 12.027 183.681 12.027C183.952 12.027 184.323 12.016 184.792 11.994L185.111 13.611C185.28 13.0243 185.544 12.5917 185.903 12.313C186.262 12.027 186.68 11.884 187.157 11.884C187.597 11.884 187.978 11.983 188.301 12.181C188.624 12.3717 188.866 12.632 189.027 12.962C189.196 13.292 189.28 13.6623 189.28 14.073V15.657C189.28 16.6323 189.298 17.4133 189.335 18H186.86Z" fill="#F79523"/>
</svg>
