<svg width="149" height="13" viewBox="0 0 149 13" fill="none" xmlns="http://www.w3.org/2000/svg">
<path d="M15.6 0.384L16.848 12H12.704L12.448 3.712L10.848 12H6.656L5.024 3.776L4.784 12H0.64L1.888 0.384H7.328L8.72 7.952L9.936 0.384H15.6ZM21.9004 9.072C25.9537 9.05067 28.8924 8.992 30.7164 8.896C30.6417 9.33333 30.5937 9.78667 30.5724 10.256C30.5617 10.7147 30.5564 11.296 30.5564 12H18.1244C18.2097 9.93067 18.2524 7.99467 18.2524 6.192C18.2524 4.38933 18.2097 2.45333 18.1244 0.384H30.5564V3.28H21.9004V4.816C22.4124 4.82667 23.1697 4.832 24.1724 4.832C25.8684 4.832 27.623 4.8 29.4364 4.736V7.488C27.623 7.424 25.8684 7.392 24.1724 7.392C23.1697 7.392 22.4124 7.39733 21.9004 7.408V9.072ZM46.6469 0.384L47.8949 12H43.7509L43.4949 3.712L41.8949 12H37.7029L36.0709 3.776L35.8309 12H31.6869L32.9349 0.384H38.3749L39.7669 7.952L40.9829 0.384H46.6469ZM52.9473 9.072C57.0006 9.05067 59.9393 8.992 61.7633 8.896C61.6886 9.33333 61.6406 9.78667 61.6193 10.256C61.6086 10.7147 61.6033 11.296 61.6033 12H49.1713C49.2566 9.93067 49.2993 7.99467 49.2993 6.192C49.2993 4.38933 49.2566 2.45333 49.1713 0.384H61.6033V3.28H52.9473V4.816C53.4593 4.82667 54.2166 4.832 55.2193 4.832C56.9153 4.832 58.6699 4.8 60.4833 4.736V7.488C58.6699 7.424 56.9153 7.392 55.2193 7.392C54.2166 7.392 53.4593 7.39733 52.9473 7.408V9.072ZM105.504 4.256C105.504 5.184 105.274 5.968 104.816 6.608C104.368 7.248 103.594 7.712 102.496 8C102.624 8.17067 102.714 8.304 102.768 8.4L105.36 12H101.008C100.538 11.1253 99.797 9.888 98.7836 8.288H96.4316V12H92.6556C92.741 9.93067 92.7836 7.99467 92.7836 6.192C92.7836 4.38933 92.741 2.45333 92.6556 0.384H96.4316V0.4H99.7116C101.866 0.4 103.37 0.746666 104.224 1.44C105.077 2.13333 105.504 3.072 105.504 4.256ZM96.4316 3.472V5.296H98.5916C99.4983 5.296 100.181 5.26933 100.64 5.216C101.109 5.152 101.434 5.056 101.616 4.928C101.797 4.8 101.888 4.61333 101.888 4.368C101.888 4.13333 101.802 3.952 101.632 3.824C101.461 3.696 101.141 3.60533 100.672 3.552C100.202 3.49867 99.509 3.472 98.5916 3.472H96.4316ZM110.557 9.072C114.61 9.05067 117.549 8.992 119.373 8.896C119.298 9.33333 119.25 9.78667 119.229 10.256C119.218 10.7147 119.213 11.296 119.213 12H106.781C106.866 9.93067 106.909 7.99467 106.909 6.192C106.909 4.38933 106.866 2.45333 106.781 0.384H119.213V3.28H110.557V4.816C111.069 4.82667 111.826 4.832 112.829 4.832C114.525 4.832 116.279 4.8 118.093 4.736V7.488C116.279 7.424 114.525 7.392 112.829 7.392C111.826 7.392 111.069 7.39733 110.557 7.408V9.072ZM120.656 10.624C121.018 10.08 121.317 9.57333 121.552 9.104C121.797 8.63467 122.032 8.09067 122.256 7.472C123.013 7.90933 123.893 8.25067 124.896 8.496C125.898 8.74133 126.832 8.864 127.696 8.864C128.581 8.864 129.205 8.78933 129.568 8.64C129.93 8.48 130.112 8.30933 130.112 8.128C130.112 7.47733 129.12 7.152 127.136 7.152C124.96 7.152 123.381 6.928 122.4 6.48C121.418 6.02133 120.928 5.28533 120.928 4.272C120.928 2.832 121.525 1.77067 122.72 1.088C123.914 0.405333 125.466 0.0639992 127.376 0.0639992C128.485 0.0639992 129.621 0.207999 130.784 0.495999C131.957 0.773333 133.013 1.15733 133.952 1.648C133.642 2.352 133.317 3.21067 132.976 4.224C132.912 4.43733 132.858 4.59733 132.816 4.704C132.272 4.26667 131.45 3.904 130.352 3.616C129.253 3.31733 128.282 3.168 127.44 3.168C126.426 3.168 125.744 3.23733 125.392 3.376C125.04 3.504 124.864 3.696 124.864 3.952C124.864 4.208 125.104 4.416 125.584 4.576C126.074 4.72533 126.778 4.8 127.696 4.8C129.957 4.8 131.6 5.06133 132.624 5.584C133.648 6.096 134.16 6.88533 134.16 7.952C134.16 9.44533 133.616 10.5227 132.528 11.184C131.44 11.8347 129.792 12.16 127.584 12.16C126.4 12.16 125.194 12.032 123.968 11.776C122.741 11.5093 121.637 11.1253 120.656 10.624ZM148.54 3.744C146.866 3.69067 145.239 3.65867 143.66 3.648V12H139.66V3.648C138.071 3.65867 136.45 3.69067 134.796 3.744V0.384H148.54V3.744Z" fill="white"/>
<path d="M76.7903 3.744C75.1156 3.69067 73.4889 3.65867 71.9103 3.648V12H67.9103V3.648C66.3209 3.65867 64.6996 3.69067 63.0463 3.744V0.384H76.7903V3.744ZM84.2444 12.16C81.8017 12.16 80.0044 11.632 78.8524 10.576C77.7004 9.50933 77.1244 8.016 77.1244 6.096C77.1244 4.19733 77.695 2.71467 78.8364 1.648C79.9884 0.581333 81.791 0.0479994 84.2444 0.0479994C86.7084 0.0479994 88.511 0.581333 89.6524 1.648C90.8044 2.71467 91.3804 4.19733 91.3804 6.096C91.3804 8.02667 90.8097 9.52 89.6684 10.576C88.527 11.632 86.719 12.16 84.2444 12.16ZM84.2444 8.896C85.4284 8.896 86.2817 8.672 86.8044 8.224C87.327 7.76533 87.5884 7.056 87.5884 6.096C87.5884 5.15733 87.327 4.45867 86.8044 4C86.2817 3.54133 85.4284 3.312 84.2444 3.312C83.071 3.312 82.223 3.54133 81.7004 4C81.1777 4.45867 80.9164 5.15733 80.9164 6.096C80.9164 7.04533 81.1777 7.74933 81.7004 8.208C82.223 8.66667 83.071 8.896 84.2444 8.896Z" fill="#0A1B79"/>
</svg>
